<svg width="83" height="81" viewBox="0 0 83 81" fill="none" xmlns="http://www.w3.org/2000/svg">
<g clip-path="url(#clip0_1837_5890)">
<path d="M33.2817 0.987468C33.7823 0.89121 34.2438 0.880514 34.6591 0.955382C35.0745 1.03025 35.4437 1.17286 35.7596 1.37963C36.0756 1.58641 36.3383 1.85023 36.5477 2.17466C36.7572 2.49552 36.8957 2.8556 36.9738 3.24777C37.0483 3.63993 37.0483 4.02497 36.9738 4.40287C36.8992 4.78078 36.7537 5.12303 36.5371 5.42963C36.317 5.7398 36.0294 6.00362 35.6709 6.23179C35.3123 6.45996 34.8792 6.61683 34.3787 6.71665L31.8759 7.20151L30.7789 1.47946L33.2817 0.994599V0.987468ZM34.0911 5.47242C34.3964 5.41181 34.652 5.31911 34.8615 5.19077C35.0709 5.06242 35.2378 4.91269 35.3585 4.738C35.4792 4.5633 35.5573 4.37435 35.5892 4.16401C35.6212 3.95367 35.6176 3.73619 35.575 3.51159C35.5324 3.28698 35.4579 3.08377 35.3478 2.90195C35.2378 2.72013 35.0958 2.56683 34.9183 2.44918C34.7408 2.33153 34.5313 2.24953 34.2899 2.21031C34.0485 2.1711 33.7752 2.17823 33.4699 2.23527L32.4049 2.44205L33.0261 5.67563L34.0911 5.46885V5.47242Z" fill="#CCDEC0"/>
<path d="M41.1307 -2.29694e-05C41.5887 -0.00715325 42.0182 0.0677147 42.4123 0.221016C42.8064 0.374317 43.1507 0.59179 43.4418 0.866306C43.7329 1.14439 43.9637 1.46525 44.1341 1.83602C44.3045 2.2068 44.3897 2.6061 44.3968 3.03391C44.4039 3.45816 44.3293 3.85746 44.1696 4.23893C44.0134 4.6204 43.7933 4.95196 43.5093 5.2336C43.2253 5.51525 42.8916 5.74342 42.5011 5.91098C42.1105 6.08211 41.6845 6.17124 41.2266 6.17837C40.7686 6.1855 40.3391 6.11063 39.945 5.95376C39.551 5.7969 39.2066 5.57942 38.9155 5.30847C38.6244 5.03752 38.3937 4.70953 38.2232 4.33519C38.0528 3.96085 37.9676 3.56155 37.9605 3.14087C37.9534 2.71305 38.028 2.31019 38.1877 1.93585C38.344 1.56151 38.5641 1.22995 38.8481 0.944739C39.1321 0.659528 39.4658 0.434924 39.8563 0.267363C40.2468 0.099801 40.6692 0.00710731 41.1307 -2.29694e-05ZM41.2053 4.90205C41.468 4.89848 41.7129 4.845 41.933 4.74161C42.1531 4.63823 42.3449 4.50275 42.5046 4.33162C42.6644 4.16406 42.7851 3.96798 42.8703 3.74694C42.9555 3.5259 42.9981 3.29773 42.9945 3.05887C42.991 2.82 42.9413 2.59183 42.849 2.37436C42.7567 2.15689 42.6289 1.96437 42.4656 1.80037C42.3022 1.63638 42.107 1.50447 41.8833 1.40821C41.6597 1.31195 41.4147 1.2656 41.1485 1.26917C40.8858 1.27273 40.6408 1.32621 40.4207 1.4296C40.1971 1.53299 40.0089 1.66846 39.8492 1.83959C39.6894 2.00715 39.5687 2.20323 39.4835 2.42427C39.3983 2.64531 39.3557 2.87348 39.3593 3.11591C39.3628 3.35834 39.4125 3.58294 39.5048 3.80042C39.5971 4.01789 39.7249 4.21041 39.8882 4.37441C40.0515 4.5384 40.2468 4.66675 40.4704 4.76657C40.6941 4.86283 40.939 4.90918 41.2053 4.90561V4.90205Z" fill="#CCDEC0"/>
<path d="M51.7916 1.35131L50.7728 7.08763L49.7148 6.89867L47.2547 2.88432L46.6405 6.34964L45.2524 6.10008L46.2713 0.36377L47.3292 0.552722L49.8 4.55994L50.4142 1.10532L51.7952 1.35131H51.7916Z" fill="#CCDEC0"/>
<path d="M56.3782 2.87332C56.8574 3.05514 57.255 3.28688 57.571 3.56852C57.887 3.85017 58.1284 4.1639 58.2917 4.50972C58.455 4.85197 58.5402 5.21562 58.5508 5.60065C58.5615 5.98569 58.494 6.36359 58.3556 6.73793C58.2136 7.11227 58.0148 7.44026 57.7556 7.72191C57.4964 8.00356 57.1947 8.22103 56.8468 8.3672C56.4989 8.51337 56.1155 8.5918 55.6895 8.5918C55.267 8.5918 54.8126 8.50624 54.3369 8.32442L51.9548 7.42244L53.9997 1.96777L56.3817 2.86975L56.3782 2.87332ZM54.731 7.12297C55.0221 7.23349 55.2883 7.28696 55.5333 7.28696C55.7782 7.28696 55.9983 7.24418 56.19 7.16218C56.3853 7.07662 56.5486 6.95541 56.687 6.79141C56.8255 6.63098 56.932 6.44202 57.0136 6.22812C57.0953 6.01421 57.1343 5.8003 57.1379 5.58996C57.1379 5.37605 57.0988 5.17284 57.0065 4.98032C56.9178 4.78424 56.7793 4.60954 56.5947 4.44555C56.4101 4.28155 56.1723 4.14607 55.8847 4.03912L54.8694 3.65409L53.7157 6.73437L54.731 7.1194V7.12297Z" fill="#CCDEC0"/>
<path d="M61.6394 6.64917L61.0892 7.57967L63.6132 9.08416L62.9955 10.1323L60.4714 8.62782L59.9176 9.56545L62.9955 11.4015L62.3778 12.4497L58.0858 9.88988L61.0501 4.88086L65.3421 7.44063L64.7244 8.48878L61.6465 6.65273L61.6394 6.64917Z" fill="#CCDEC0"/>
<path d="M69.5169 12.4564L68.7572 13.2264L70.8446 15.2978L69.9926 16.1641L67.9052 14.0892L67.1419 14.8664L69.6873 17.3941L68.8353 18.2604L65.2888 14.7345L69.3714 10.5918L72.9214 14.1177L72.0694 14.9841L69.524 12.4564H69.5169Z" fill="#CCDEC0"/>
<path d="M73.1096 21.9365L72.0907 22.6816L69.517 19.1343L74.2066 15.7046L75.0373 16.849L71.3665 19.5336L73.1096 21.9365Z" fill="#CCDEC0"/>
<path d="M78.2572 28.6816C78.2501 28.7707 78.2359 28.8812 78.2075 29.0131C78.1791 29.1451 78.1294 29.2805 78.0584 29.4124C77.9874 29.5479 77.8916 29.6763 77.7744 29.7975C77.6573 29.9187 77.5046 30.0185 77.32 30.0934C77.1105 30.1789 76.894 30.2182 76.6739 30.2146C76.4538 30.211 76.2443 30.1611 76.0455 30.0649C75.8467 29.9686 75.6586 29.826 75.4882 29.637C75.3178 29.4481 75.1758 29.2128 75.0586 28.9311L73.7061 25.5728L79.0915 23.3838L80.3837 26.5889C80.4866 26.8455 80.5434 27.0951 80.5505 27.3375C80.5576 27.58 80.5257 27.8046 80.4511 28.0078C80.3766 28.211 80.2665 28.3892 80.121 28.5425C79.9719 28.6958 79.8015 28.8135 79.5991 28.8955C79.4607 28.9525 79.3222 28.9811 79.1873 28.9846C79.0524 28.9846 78.9211 28.9739 78.8004 28.9418C78.6797 28.9098 78.5732 28.8705 78.4773 28.8206C78.385 28.7707 78.3069 28.7244 78.2466 28.6816H78.2572ZM76.01 28.2324C76.1023 28.4606 76.2301 28.6139 76.397 28.6923C76.5603 28.7672 76.7271 28.7743 76.8904 28.7065C77.0537 28.6388 77.1709 28.5247 77.2384 28.3607C77.3058 28.1967 77.2916 27.9935 77.1957 27.7547L76.4822 25.9828L75.2965 26.4641L76.01 28.2359V28.2324ZM77.5366 25.5514L78.1791 27.145C78.2679 27.3625 78.3815 27.5051 78.5235 27.5693C78.6655 27.6334 78.8075 27.637 78.953 27.5764C79.1021 27.5158 79.2051 27.4124 79.2619 27.2627C79.3187 27.1165 79.3045 26.9347 79.2193 26.7208L78.5767 25.1271L77.5366 25.5478V25.5514Z" fill="#CCDEC0"/>
<path d="M75.9425 31.7155L81.5729 30.3037L81.9137 31.6799L76.2833 33.0917L75.9425 31.7155Z" fill="#CCDEC0"/>
<path d="M81.3598 35.3665L80.2877 35.4841L80.6072 38.4147L79.4038 38.5466L79.0843 35.616L78.0015 35.7337L78.3885 39.3059L77.185 39.4379L76.6454 34.4538L82.4142 33.8228L82.9538 38.8068L81.7503 38.9387L81.3634 35.3629L81.3598 35.3665Z" fill="#CCDEC0"/>
<path d="M82.5314 46.6143L76.7484 46.1258L76.8372 45.0492L80.5896 42.2149L77.0999 41.9225L77.217 40.5107L83 40.9992L82.9113 42.0758L79.166 44.9173L82.6486 45.2096L82.5314 46.6143Z" fill="#CCDEC0"/>
<path d="M80.5114 49.9978L79.4748 49.6983L78.669 52.5326L77.5045 52.1975L78.3104 49.3632L77.2631 49.0637L76.2798 52.5219L75.1154 52.1868L76.4857 47.3667L82.0663 48.9674L80.696 53.7875L79.5316 53.4524L80.515 49.9942L80.5114 49.9978Z" fill="#CCDEC0"/>
<path d="M77.9305 56.2256C77.8063 56.165 77.6643 56.1935 77.5045 56.3183C77.3448 56.4431 77.1708 56.6071 76.9862 56.8174C76.8016 57.0278 76.5993 57.2524 76.3792 57.4948C76.1626 57.7372 75.9283 57.9476 75.6763 58.1258C75.4242 58.3041 75.1615 58.4253 74.8811 58.4895C74.6042 58.5536 74.3095 58.5109 74.0006 58.3576C73.7131 58.215 73.4965 58.0296 73.3581 57.8014C73.2161 57.5732 73.1344 57.3237 73.1131 57.0492C73.0918 56.7746 73.1202 56.4823 73.2019 56.1721C73.2835 55.862 73.4007 55.5518 73.5533 55.2416C73.7628 54.8174 74.0113 54.4252 74.2988 54.0616C74.59 53.6979 74.9201 53.3771 75.2964 53.1025L76.0916 54.1043C75.8147 54.3325 75.5449 54.5963 75.2893 54.8922C75.0337 55.1881 74.8278 55.4912 74.6752 55.8014C74.5793 55.9974 74.5154 56.165 74.4835 56.3076C74.4515 56.4502 74.4409 56.5679 74.448 56.6605C74.4586 56.7532 74.4835 56.8317 74.5261 56.8887C74.5687 56.9458 74.6148 56.985 74.6645 57.0099C74.8172 57.0848 74.9769 57.0634 75.1402 56.9422C75.3035 56.821 75.4775 56.6534 75.6621 56.4431C75.8467 56.2327 76.0419 56.0046 76.2514 55.7586C76.4608 55.5126 76.688 55.2987 76.933 55.1168C77.1779 54.935 77.4406 54.8138 77.7246 54.7532C78.0086 54.6926 78.314 54.7425 78.6406 54.9029C78.8749 55.017 79.0524 55.1775 79.1766 55.3807C79.3009 55.5839 79.3754 55.8192 79.4003 56.0866C79.4216 56.354 79.4003 56.6463 79.3222 56.96C79.2476 57.2738 79.1269 57.6017 78.9601 57.9404C78.7755 58.3183 78.5554 58.6713 78.2997 59.0028C78.0441 59.3344 77.7495 59.6232 77.4158 59.8763L76.6561 58.9315C76.9188 58.7141 77.1531 58.4716 77.3661 58.2007C77.5791 57.9297 77.7495 57.6659 77.8773 57.4092C77.9376 57.2845 77.9909 57.1632 78.037 57.0385C78.0832 56.9137 78.1116 56.8032 78.1222 56.6962C78.1329 56.5892 78.1258 56.4966 78.0974 56.4146C78.069 56.3326 78.0122 56.272 77.9199 56.2256H77.9305Z" fill="#CCDEC0"/>
<path d="M73.674 66.0226L72.6552 65.2739L73.848 63.6339L70.1843 60.9423L71.0186 59.7979L74.6822 62.4895L75.875 60.8496L76.8939 61.5982L73.6705 66.019L73.674 66.0226Z" fill="#CCDEC0"/>
<path d="M64.5647 66.9674L65.5658 65.9798L66.7657 66.4932L68.7076 64.5823L68.2212 63.3666L69.2295 62.3755L71.5725 68.2294L70.3442 69.438L64.5647 66.9674ZM67.9408 66.9923L70.0318 67.8872L69.1869 65.7659L67.9408 66.9959V66.9923Z" fill="#CCDEC0"/>
<path d="M59.3176 70.5256L60.6844 69.5951L62.8357 70.3046L63.8901 69.588L62.8854 68.0978L64.0534 67.3027L67.3088 72.1264L64.6924 73.9054C64.4119 74.0943 64.1279 74.2262 63.8404 74.294C63.5528 74.3617 63.2795 74.376 63.0132 74.3332C62.7505 74.2904 62.5056 74.1977 62.2819 74.0551C62.0583 73.9125 61.8666 73.7271 61.7139 73.4954C61.4903 73.1638 61.3767 72.8037 61.3731 72.4116C61.3731 72.0194 61.4796 71.6522 61.7033 71.3064L59.3141 70.5256H59.3176ZM63.2404 71.5524C62.9777 71.7306 62.8251 71.9232 62.7825 72.1264C62.7363 72.3331 62.7718 72.5221 62.8925 72.6968C63.0097 72.8715 63.173 72.9784 63.3824 73.0141C63.5919 73.0497 63.8262 72.9784 64.0853 72.8002L65.4379 71.8804L64.5966 70.6326L63.244 71.5524H63.2404Z" fill="#CCDEC0"/>
<path d="M56.6055 76.7576L56.2363 75.7379L53.4779 76.7469L53.0625 75.6025L55.8174 74.5935L55.4446 73.5668L52.0827 74.8003L51.6674 73.6559L56.357 71.9375L58.3485 77.4136L53.6589 79.132L53.2436 77.9875L56.6055 76.754V76.7576Z" fill="#CCDEC0"/>
<path d="M46.0902 80.665L45.0962 74.9251L46.1577 74.7398L49.8355 77.6667L49.2355 74.2014L50.6272 73.959L51.6212 79.6989L50.5597 79.8843L46.8748 76.9644L47.4747 80.4226L46.0938 80.665H46.0902Z" fill="#CCDEC0"/>
<path d="M40.971 76.0981C40.7012 76.0945 40.4598 76.1302 40.2433 76.2122C40.0267 76.2906 39.835 76.4047 39.6646 76.5437L38.8019 75.6703C39.1002 75.3958 39.441 75.1854 39.8279 75.0357C40.2149 74.8859 40.6338 74.8146 41.0882 74.8218C41.5461 74.8289 41.9721 74.918 42.3626 75.0892C42.7531 75.2603 43.0904 75.4849 43.3709 75.7665C43.6549 76.0482 43.8714 76.3797 44.0312 76.7612C44.1874 77.1427 44.2655 77.542 44.2584 77.9662C44.2513 78.394 44.1625 78.7933 43.9957 79.1641C43.8253 79.5349 43.5981 79.8558 43.3034 80.1338C43.0123 80.4084 42.6679 80.6258 42.2739 80.7791C41.8798 80.936 41.4503 81.0073 40.9923 81.0002C40.5379 80.993 40.1226 80.9075 39.7392 80.747C39.3558 80.5866 39.0221 80.362 38.7345 80.0804L39.6256 79.2354C39.7889 79.3816 39.977 79.4992 40.1936 79.5919C40.4066 79.6811 40.648 79.7274 40.9178 79.731C41.2089 79.7345 41.4751 79.6882 41.713 79.5919C41.9508 79.4957 42.1532 79.3673 42.32 79.1998C42.4904 79.0358 42.6182 78.8433 42.7105 78.6258C42.8028 78.4083 42.8525 78.1801 42.8561 77.9413C42.8596 77.7024 42.8206 77.4707 42.7318 77.2496C42.6431 77.0286 42.5224 76.8325 42.3591 76.665C42.1958 76.4938 41.997 76.3584 41.7627 76.255C41.5284 76.1516 41.2657 76.0981 40.9746 76.091L40.971 76.0981Z" fill="#CCDEC0"/>
<path d="M31.1871 79.6739L31.7232 76.6114C31.7978 76.1907 31.9327 75.8164 32.1244 75.4884C32.3196 75.1604 32.561 74.8966 32.8486 74.6898C33.1397 74.483 33.4734 74.344 33.8532 74.2656C34.2331 74.1871 34.6484 74.1907 35.0922 74.2691C35.5395 74.3476 35.9265 74.4902 36.2602 74.6898C36.5903 74.893 36.8601 75.139 37.0589 75.4314C37.2613 75.7237 37.3962 76.0553 37.4636 76.4296C37.5311 76.8039 37.5275 77.1997 37.4565 77.6204L36.9205 80.6828L35.5324 80.4368L36.0791 77.3173C36.1146 77.1212 36.1182 76.9252 36.0898 76.7326C36.0614 76.5401 36.001 76.3583 35.9052 76.1907C35.8093 76.0232 35.6744 75.8806 35.504 75.7594C35.3336 75.6381 35.1241 75.5561 34.8756 75.5134C34.6271 75.4706 34.3999 75.4742 34.2011 75.5276C33.9988 75.5811 33.8248 75.6702 33.6722 75.795C33.5231 75.9162 33.4024 76.066 33.3101 76.2407C33.2178 76.4118 33.1539 76.5972 33.1219 76.7968L32.5752 79.9163L31.1836 79.6703L31.1871 79.6739Z" fill="#CCDEC0"/>
<path d="M28.1199 77.3884L28.4927 76.3724L25.7414 75.3527L26.1603 74.2119L28.9116 75.2315L29.2879 74.2083L25.9295 72.9641L26.3484 71.8232L31.0309 73.5595L29.0216 79.0248L24.3391 77.2886L24.758 76.1478L28.1164 77.392L28.1199 77.3884Z" fill="#CCDEC0"/>
<path d="M17.5869 73.5275L20.537 68.5078L21.4636 69.0568L22.3724 73.6808L24.1545 70.6505L25.3686 71.3706L22.4185 76.3903L21.492 75.8413L20.5689 71.2209L18.7939 74.2441L17.5869 73.5275Z" fill="#CCDEC0"/>
<path d="M11.9318 68.8428L12.7554 67.8838L14.2855 69.21L17.2497 65.7554L18.3183 66.6823L15.354 70.1369L16.8841 71.4632L16.0605 72.4222L11.9282 68.8428H11.9318Z" fill="#CCDEC0"/>
<path d="M11.5164 59.3525L12.5601 60.6396L12.0453 62.8571L12.8512 63.8482L14.2393 62.7109L15.1303 63.809L10.6324 67.4918L8.63729 65.0354C8.42429 64.7716 8.27164 64.5006 8.17579 64.219C8.08349 63.9373 8.04444 63.6628 8.06574 63.3954C8.08349 63.128 8.15449 62.8749 8.27519 62.6396C8.39589 62.4043 8.56629 62.1975 8.7793 62.0193C9.08815 61.7661 9.43605 61.62 9.82301 61.5843C10.21 61.5451 10.5863 61.6235 10.9484 61.8161L11.5128 59.3561L11.5164 59.3525ZM10.849 63.3705C10.6502 63.1245 10.4478 62.989 10.2384 62.9605C10.0325 62.9355 9.84431 62.9854 9.68101 63.1209C9.5177 63.2564 9.42895 63.4275 9.4112 63.6378C9.39345 63.8482 9.48575 64.0764 9.68456 64.3223L10.7176 65.5951L11.882 64.6396L10.849 63.3669V63.3705Z" fill="#CCDEC0"/>
<path d="M8.38165 53.5698L9.04906 54.8105L8.229 55.8266L9.52476 58.2295L10.8205 58.094L11.4915 59.3418L5.23986 59.9871L4.4198 58.4683L8.3781 53.5734L8.38165 53.5698ZM7.42314 56.8212L5.98892 58.5931L8.25385 58.3649L7.42314 56.8212Z" fill="#CCDEC0"/>
<path d="M2.94303 50.3005C3.07793 50.2684 3.16669 50.1543 3.21284 49.9547C3.25544 49.7586 3.28384 49.5197 3.29449 49.2381C3.30514 48.9564 3.31579 48.6534 3.32999 48.329C3.34419 48.0046 3.39034 47.6908 3.47199 47.3949C3.55364 47.099 3.67789 46.8352 3.85184 46.607C4.0258 46.3788 4.27785 46.2255 4.61155 46.1435C4.92396 46.0687 5.20796 46.0722 5.46001 46.1578C5.71207 46.2434 5.93572 46.3824 6.12742 46.5785C6.31912 46.7746 6.48242 47.0206 6.61733 47.3094C6.75223 47.6017 6.85873 47.9119 6.94038 48.2505C7.05043 48.7105 7.10723 49.1739 7.11788 49.6374C7.12498 50.1044 7.07173 50.5643 6.95813 51.0171L5.70852 50.7568C5.77952 50.4039 5.81857 50.0296 5.82567 49.6374C5.83632 49.2452 5.80082 48.878 5.71917 48.5429C5.66947 48.329 5.60911 48.1579 5.54521 48.0295C5.48131 47.9012 5.41386 47.8013 5.34641 47.7336C5.27896 47.6659 5.21151 47.6266 5.14051 47.6088C5.07306 47.5946 5.00916 47.591 4.95591 47.6053C4.78905 47.6445 4.68255 47.7657 4.63285 47.9618C4.58315 48.1614 4.55475 48.4003 4.54765 48.6784C4.54055 48.9564 4.53345 49.2595 4.5299 49.5839C4.52635 49.9083 4.4873 50.2185 4.41275 50.5144C4.34175 50.8103 4.21395 51.0741 4.03645 51.3023C3.85894 51.5305 3.58914 51.6909 3.23414 51.7729C2.98208 51.8335 2.74068 51.8264 2.51703 51.7515C2.28982 51.6767 2.08392 51.5412 1.89577 51.3487C1.70762 51.1561 1.54432 50.9173 1.39876 50.6285C1.25676 50.3397 1.13961 50.0117 1.05441 49.641C0.958558 49.231 0.901757 48.8174 0.887557 48.4003C0.873357 47.9832 0.915958 47.5696 1.01181 47.1632L2.19397 47.402C2.13007 47.7372 2.10522 48.0759 2.11232 48.4217C2.11942 48.7675 2.15847 49.0777 2.22592 49.3593C2.25787 49.4948 2.29692 49.6231 2.33952 49.7443C2.38213 49.8656 2.43538 49.9725 2.49218 50.0616C2.54898 50.1508 2.61643 50.2185 2.69098 50.2649C2.76553 50.3076 2.85073 50.3183 2.94658 50.2969L2.94303 50.3005Z" fill="#CCDEC0"/>
<path d="M0 39.2555L3.09209 39.1236C3.51809 39.1058 3.91215 39.1557 4.2707 39.2769C4.62926 39.3981 4.94166 39.5764 5.20436 39.8153C5.46707 40.0541 5.67652 40.3536 5.83272 40.7101C5.98892 41.0666 6.07767 41.4731 6.09542 41.9258C6.11317 42.3822 6.05992 42.7922 5.93567 43.1629C5.81142 43.5301 5.62682 43.8474 5.38541 44.1077C5.14401 44.368 4.84936 44.5747 4.50145 44.7209C4.15355 44.8671 3.7666 44.9526 3.34059 44.9705L0.248503 45.1024L0.188152 43.687L3.34059 43.5515C3.53939 43.5444 3.73109 43.5052 3.91215 43.4374C4.0932 43.3697 4.2565 43.2699 4.3985 43.1415C4.5405 43.0096 4.65056 42.8492 4.73221 42.6567C4.81386 42.4642 4.84581 42.2396 4.83516 41.9864C4.82451 41.7333 4.77126 41.5123 4.67541 41.3269C4.57956 41.1415 4.4553 40.9882 4.30265 40.867C4.15 40.7458 3.9796 40.6602 3.795 40.6067C3.60684 40.5533 3.41514 40.5319 3.21634 40.539L0.0639008 40.6709L0.00355004 39.2555H0Z" fill="#CCDEC0"/>
<path d="M1.90639 28.3677L7.54031 29.7581L7.2066 31.1271L5.00558 30.5852L4.32752 33.3624L6.52854 33.9043L6.19129 35.2805L0.557373 33.8901L0.894627 32.5139L3.08855 33.0558L3.76661 30.2786L1.57269 29.7367L1.90639 28.3677Z" fill="#CCDEC0"/>
<path d="M3.74175 23.5049C3.94055 23.0878 4.19615 22.7384 4.50856 22.4497C4.82096 22.1645 5.16887 21.9505 5.54517 21.8115C5.92147 21.6725 6.31198 21.6083 6.71668 21.6226C7.12139 21.6332 7.51544 21.7331 7.9024 21.9185C8.28225 22.1003 8.60531 22.3463 8.87511 22.6564C9.14491 22.9666 9.34017 23.3124 9.46797 23.6939C9.59577 24.0718 9.64547 24.4782 9.62417 24.9025C9.60287 25.3303 9.49282 25.751 9.29402 26.1681C9.09521 26.5852 8.83961 26.9346 8.52366 27.2198C8.2077 27.505 7.86335 27.7189 7.48704 27.858C7.11429 27.997 6.72378 28.0612 6.31198 28.0469C5.90372 28.0327 5.50612 27.9328 5.12626 27.751C4.74286 27.5656 4.41626 27.3196 4.15355 27.013C3.89085 26.7064 3.69205 26.3606 3.56425 25.9792C3.43644 25.5977 3.38319 25.1948 3.40804 24.7706C3.43289 24.3463 3.54295 23.9256 3.74175 23.5085V23.5049ZM8.14735 25.6155C8.26095 25.3766 8.3213 25.1342 8.3284 24.8882C8.3355 24.6422 8.29645 24.4105 8.21835 24.193C8.1367 23.9755 8.01955 23.7795 7.8598 23.6048C7.70005 23.4301 7.51544 23.291 7.29889 23.1876C7.08589 23.0843 6.85869 23.0272 6.62438 23.013C6.39008 22.9987 6.16288 23.0272 5.94277 23.1021C5.72267 23.177 5.52032 23.291 5.33572 23.4515C5.15112 23.6119 4.99846 23.8115 4.88486 24.0504C4.77126 24.2893 4.71091 24.5317 4.70381 24.7777C4.69671 25.0237 4.73576 25.2554 4.81386 25.4729C4.89551 25.6904 5.01621 25.8865 5.17242 26.0612C5.33217 26.2358 5.51677 26.3749 5.73332 26.4783C5.94987 26.5817 6.17353 26.6387 6.40783 26.653C6.64213 26.6672 6.86934 26.6387 7.08944 26.5638C7.30954 26.489 7.51189 26.3749 7.6965 26.2145C7.8811 26.054 8.03375 25.8544 8.14735 25.6155Z" fill="#CCDEC0"/>
<path d="M11.9566 15.6617C11.9992 15.6866 12.0418 15.7151 12.0844 15.7472C12.127 15.7793 12.1731 15.815 12.2193 15.8506C12.5778 16.1216 12.8654 16.4353 13.0784 16.7954C13.295 17.1554 13.4299 17.5298 13.4867 17.9255C13.5435 18.3212 13.5186 18.7241 13.4192 19.1305C13.3163 19.537 13.1281 19.9256 12.8512 20.2928C12.5743 20.66 12.2512 20.9523 11.8856 21.1698C11.5199 21.3873 11.1365 21.5263 10.746 21.5869C10.352 21.6511 9.95437 21.6333 9.55676 21.537C9.15916 21.4407 8.78995 21.2661 8.45625 21.0094C8.11545 20.7527 7.84919 20.4461 7.65039 20.0896C7.45159 19.733 7.32734 19.3587 7.27764 18.9594C7.22794 18.5601 7.25634 18.1537 7.36639 17.7437C7.47644 17.3301 7.66814 16.9415 7.94504 16.5743C8.2894 16.1144 8.7012 15.7722 9.17691 15.5476C9.65261 15.323 10.1425 15.2231 10.6466 15.2445L10.5046 16.5137C10.2277 16.5066 9.95437 16.5636 9.69166 16.6884C9.42896 16.8132 9.19111 17.0128 8.98521 17.2909C8.8148 17.5155 8.7012 17.7508 8.64085 17.9968C8.5805 18.2428 8.5663 18.4817 8.6018 18.7134C8.6373 18.9451 8.71185 19.1626 8.83255 19.3658C8.95326 19.569 9.10946 19.7437 9.29761 19.8863C9.48931 20.0289 9.69521 20.1323 9.92597 20.1929C10.1532 20.2536 10.3839 20.2678 10.6147 20.2393C10.8454 20.2072 11.0726 20.1288 11.2892 20.004C11.5093 19.8792 11.7045 19.701 11.8714 19.4764C12.1199 19.1448 12.2477 18.8097 12.2512 18.471C12.2548 18.1323 12.1696 17.8221 11.9921 17.544L11.1365 18.6813L10.21 17.979L11.953 15.6617H11.9566Z" fill="#CCDEC0"/>
<path d="M19.3513 13.3193L18.3182 14.2712L17.1361 13.7221L15.1338 15.5689L15.5811 16.7988L14.541 17.7579L12.3896 11.829L13.657 10.6597L19.3513 13.3193ZM15.9787 13.1802L13.9162 12.2176L14.6901 14.3674L15.9752 13.1802H15.9787Z" fill="#CCDEC0"/>
<path d="M24.7224 9.92515L23.3237 10.8093L21.1937 10.0285L20.118 10.7095L21.073 12.2318L19.8802 12.9876L16.7845 8.06058L19.4542 6.36714C19.7417 6.18532 20.0293 6.06767 20.3168 6.00706C20.6044 5.95002 20.8813 5.94645 21.144 5.99636C21.4067 6.04628 21.6481 6.1461 21.8682 6.29584C22.0883 6.44557 22.2729 6.63809 22.4185 6.87339C22.6315 7.21208 22.7309 7.57572 22.7238 7.96789C22.7131 8.35649 22.5924 8.7237 22.3581 9.06239L24.7189 9.92158L24.7224 9.92515ZM20.8316 8.77004C21.0978 8.60248 21.2576 8.41353 21.3109 8.21032C21.3641 8.0071 21.3322 7.81459 21.2186 7.63633C21.1049 7.45807 20.9487 7.34755 20.7393 7.30477C20.5334 7.26199 20.2955 7.32616 20.0293 7.49372L18.6483 8.37075L19.4506 9.64707L20.8351 8.77004H20.8316Z" fill="#CCDEC0"/>
<path d="M27.0442 6.7418C27.601 6.7418 28.0524 6.28849 28.0524 5.7293C28.0524 5.17011 27.601 4.7168 27.0442 4.7168C26.4874 4.7168 26.036 5.17011 26.036 5.7293C26.036 6.28849 26.4874 6.7418 27.0442 6.7418Z" fill="#CCDEC0"/>
<path d="M28.8441 30.3716C28.8441 28.1862 30.9529 26.7637 37.137 26.7637C45.9837 26.7637 53.5134 30.3359 53.5134 36.6534C53.5134 39.8121 50.5775 41.477 47.1908 40.0902L40.2788 37.2452C38.6884 36.5856 37.9997 37.8691 39.3807 38.8424L49.6758 46.0261C51.2307 47.1349 52.0934 48.3863 52.0934 49.6697C52.0934 53.1386 47.9469 54.1796 43.3532 54.1796C38.7239 54.2153 33.5409 53.4167 31.5351 52.479C29.7033 51.6127 28.7376 50.5004 28.8406 48.5217C28.9435 46.4397 30.4985 45.6054 33.4698 46.6465L47.6026 51.6091C49.2959 52.1974 50.2296 50.7749 50.2296 50.012C50.2296 49.1456 49.9527 48.4504 48.3303 47.9299L34.8544 43.6268C31.812 42.6535 31.3292 41.0242 31.3292 39.7408C31.3292 38.0759 32.2273 36.4787 34.8544 36.1685L47.2227 34.6426C49.3314 34.3646 50.1266 33.6694 50.1266 32.664C50.1266 31.6586 49.2285 30.7566 47.2227 30.9278L32.0179 32.2825C29.4264 32.5249 28.8406 31.4839 28.8406 30.3752L28.8441 30.3716Z" fill="#CCDEC0"/>
</g>
<defs>
<clipPath id="clip0_1837_5890">
<rect width="83" height="81" fill="white"/>
</clipPath>
</defs>
</svg>
